<?xml version="1.0" standalone="no"?>
<!DOCTYPE svg PUBLIC "-//W3C//DTD SVG 20010904//EN"
 "http://www.w3.org/TR/2001/REC-SVG-20010904/DTD/svg10.dtd">
<svg version="1.0" xmlns="http://www.w3.org/2000/svg"
 width="256.000000pt" height="256.000000pt" viewBox="0 0 256.000000 256.000000"
 preserveAspectRatio="xMidYMid meet">
<metadata>
Created by potrace 1.11, written by Peter Selinger 2001-2013
</metadata>
<g transform="translate(0.000000,256.000000) scale(0.100000,-0.100000)"
fill="#000000" stroke="none">
<path d="M0 1280 l0 -1280 1280 0 1280 0 0 1280 0 1280 -1280 0 -1280 0 0
-1280z m1131 947 c43 -34 79 -68 79 -75 0 -7 -15 -43 -34 -80 -165 -327 -331
-785 -435 -1199 -38 -150 -81 -335 -81 -349 0 -15 295 317 481 541 237 285
509 641 794 1038 66 92 126 167 134 167 17 0 72 -59 117 -124 26 -40 31 -53
23 -68 -24 -45 -458 -614 -673 -882 -415 -518 -787 -936 -832 -936 -7 0 -25
15 -42 34 -31 35 -42 37 -42 4 0 -15 -8 -18 -48 -18 -59 0 -142 23 -173 49
-23 19 -23 19 -11 120 23 184 115 520 245 896 140 406 333 884 380 943 14 18
27 11 118 -61z"/>
<path d="M2089 1983 c-196 -260 -285 -383 -275 -383 6 0 211 274 305 408 37
54 17 36 -30 -25z"/>
<path d="M2018 1958 c-40 -55 -72 -104 -56 -88 20 21 91 120 85 120 -3 0 -16
-15 -29 -32z"/>
<path d="M611 1104 c0 -11 3 -14 6 -6 3 7 2 16 -1 19 -3 4 -6 -2 -5 -13z"/>
<path d="M586 1024 c-4 -14 -5 -28 -3 -31 3 -2 8 8 11 23 4 14 5 28 3 31 -3 2
-8 -8 -11 -23z"/>
<path d="M571 964 c0 -11 3 -14 6 -6 3 7 2 16 -1 19 -3 4 -6 -2 -5 -13z"/>
<path d="M551 894 c0 -11 3 -14 6 -6 3 7 2 16 -1 19 -3 4 -6 -2 -5 -13z"/>
<path d="M511 874 c0 -11 3 -14 6 -6 3 7 2 16 -1 19 -3 4 -6 -2 -5 -13z"/>
<path d="M541 854 c0 -11 3 -14 6 -6 3 7 2 16 -1 19 -3 4 -6 -2 -5 -13z"/>
<path d="M477 747 c-15 -58 -27 -112 -26 -119 0 -7 14 37 30 97 15 61 27 114
26 120 -2 5 -15 -39 -30 -98z"/>
<path d="M441 594 c0 -11 3 -14 6 -6 3 7 2 16 -1 19 -3 4 -6 -2 -5 -13z"/>
<path d="M432 540 c0 -14 2 -19 5 -12 2 6 2 18 0 25 -3 6 -5 1 -5 -13z"/>
<path d="M422 480 c0 -14 2 -19 5 -12 2 6 2 18 0 25 -3 6 -5 1 -5 -13z"/>
</g>
</svg>
