<?xml version="1.0" encoding="UTF-8" standalone="no"?>
<svg width="98px" height="108px" viewBox="0 0 98 108" version="1.1" xmlns="http://www.w3.org/2000/svg" xmlns:xlink="http://www.w3.org/1999/xlink">
    <!-- Generator: Sketch 3.6.1 (26313) - http://www.bohemiancoding.com/sketch -->
    <title>Shape</title>
    <desc>Created with Sketch.</desc>
    <defs></defs>
    <g id="Page-1" stroke="none" stroke-width="1" fill="none" fill-rule="evenodd">
        <g id="04_ProfilsDesktop_02_InscriptionEmail" transform="translate(-1229.000000, -421.000000)" fill="#FFFFFF">
            <g id="Page" transform="translate(903.000000, 281.000000)">
                <g id="Contenu" transform="translate(40.000000, 75.000000)">
                    <g id="Participant" transform="translate(265.000000, 40.000000)">
                        <g id="Shape">
                            <path d="M48.0277778,165.666667 L91.7777778,165.666667 C106.215278,165.666667 118.027778,153.854167 118.027778,139.416667 L118.027778,121.916667 C118.027778,110.541667 110.590278,100.916667 100.527778,97.4166667 C106.215278,89.9791667 109.277778,80.3541667 109.277778,69.4166667 C109.277778,45.3541667 91.7777778,25.6666667 69.9027778,25.6666667 C48.0277778,25.6666667 30.5277778,45.3541667 30.5277778,69.4166667 C30.5277778,79.9166667 34.0277778,89.5416667 39.2777778,97.4166667 C28.7777778,100.916667 21.7777778,110.541667 21.7777778,121.916667 L21.7777778,139.416667 C21.7777778,153.854167 33.5902778,165.666667 48.0277778,165.666667 L48.0277778,165.666667 Z M39.2777778,69.4166667 C39.2777778,50.1666667 52.8402778,34.4166667 69.9027778,34.4166667 C86.9652778,34.4166667 100.527778,50.1666667 100.527778,69.4166667 C100.527778,88.6666667 86.9652778,104.416667 69.9027778,104.416667 C52.8402778,104.416667 39.2777778,88.6666667 39.2777778,69.4166667 L39.2777778,69.4166667 Z M30.5277778,124.104167 C30.5277778,114.916667 37.5277778,107.041667 47.1527778,104.854167 C53.7152778,110.104167 61.5902778,113.166667 69.9027778,113.166667 C78.2152778,113.166667 86.5277778,110.104167 92.6527778,104.854167 C102.277778,107.041667 109.277778,114.479167 109.277778,124.104167 L109.277778,137.229167 C109.277778,148.166667 99.6527778,156.916667 87.8402778,156.916667 L51.9652778,156.916667 C40.1527778,156.916667 30.5277778,148.166667 30.5277778,137.229167 L30.5277778,124.104167 L30.5277778,124.104167 Z"></path>
                        </g>
                    </g>
                </g>
            </g>
        </g>
    </g>
</svg>